<?xml version="1.0" encoding="UTF-8" standalone="no"?>
<svg
   width="240"
   height="64"
   viewBox="0 0 240 64"
   version="1.1"
   id="svg1"
   sodipodi:docname="logo.svg"
   inkscape:version="1.4.2 (f4327f4, 2025-05-13)"
   xmlns:inkscape="http://www.inkscape.org/namespaces/inkscape"
   xmlns:sodipodi="http://sodipodi.sourceforge.net/DTD/sodipodi-0.dtd"
   xmlns="http://www.w3.org/2000/svg"
   xmlns:svg="http://www.w3.org/2000/svg">
  <defs
     id="defs1">
    <rect
       x="87.417218"
       y="15.496689"
       width="131.3245"
       height="33.377483"
       id="rect9" />
  </defs>
  <sodipodi:namedview
     id="namedview1"
     pagecolor="#505050"
     bordercolor="#ffffff"
     borderopacity="1"
     inkscape:showpageshadow="0"
     inkscape:pageopacity="0"
     inkscape:pagecheckerboard="1"
     inkscape:deskcolor="#505050"
     showguides="true"
     inkscape:zoom="5.0333333"
     inkscape:cx="145.72848"
     inkscape:cy="-7.4503311"
     inkscape:window-width="2560"
     inkscape:window-height="1369"
     inkscape:window-x="1912"
     inkscape:window-y="-8"
     inkscape:window-maximized="1"
     inkscape:current-layer="g9">
    <sodipodi:guide
       position="103.11258,15.324503"
       orientation="0,-1"
       id="guide2"
       inkscape:locked="false" />
    <sodipodi:guide
       position="102.81457,49.198675"
       orientation="0,-1"
       id="guide9"
       inkscape:locked="false" />
  </sodipodi:namedview>
  <g
     id="g4194"
     transform="translate(1.3907285,-68.145695)">
    <g
       id="g4145"
       fill="currentColor">
      <circle
         id="path2993"
         stroke-width="1.3262"
         transform="rotate(-30)"
         cy="43.713001"
         cx="9.4364004"
         r="2.2765" />
      <path
         id="path3004"
         stroke-width="1.0095"
         d="m 37.012,24.177 -2.8428,3.6128 c 0.66345,0.52205 1.3255,1.1576 1.7734,1.9333 0.4479,0.77578 0.66726,1.6669 0.78764,2.5025 l 4.5502,-0.65558 c -0.193,-1.42 -0.633,-2.804 -1.394,-4.123 -0.761,-1.319 -1.74,-2.391 -2.874,-3.27 z" />
      <path
         id="path3014"
         stroke-width="1.0095"
         d="m 42.504,16.9 -2.8428,3.6128 c 1.607,1.2355 3.0914,2.7935 4.1679,4.6581 1.0765,1.8646 1.6835,3.9291 1.95,5.9386 l 4.5502,-0.65558 c -0.33967,-2.5954 -1.1669,-5.1513 -2.5573,-7.5594 -1.3903,-2.4081 -3.1901,-4.4025 -5.268,-5.9944 z" />
      <path
         id="path3036"
         stroke-width="3.6204"
         d="m 28.667,44.439 a 9.1058,9.1058 0 0 1 -9.1058,2.3e-5 9.1058,9.1058 0 0 1 -4.5529,-7.8859 9.1058,9.1058 0 0 1 4.5529,-7.8859 l 4.5529,7.8859 z" />
      <path
         id="path3038-8"
         stroke-width="1.0095"
         d="M 17.502,6.8895 C 3.634,14.896 -1.117,32.6295 6.89,46.4975 c 8.006,13.868 25.739,18.619 39.608,10.613 13.868,-8.007 18.619,-25.74 10.613,-39.609 -8.007,-13.868 -25.74,-18.62 -39.609,-10.612 z m 1.706,2.9541 C 31.445,2.7788 47.092,6.9714 54.156,19.208 61.221,31.445 57.029,47.092 44.792,54.156 32.555,61.221 16.908,57.029 9.844,44.792 2.7788,32.555 6.9714,16.908 19.208,9.844 Z" />
    </g>
  </g>
  <g
     id="logotext"
     aria-label="Traccar"
     fill="currentColor" />
  <g
     id="g9">
    <rect
       id="rect3778"
       height="64"
       width="240"
       y="0"
       x="0"
       fill="none" />
    <text
       xml:space="preserve"
       id="text9"
       style="font-size:24px;line-height:1.5;text-align:start;writing-mode:lr-tb;direction:ltr;white-space:pre;shape-inside:url(#rect9);display:inline;fill:#000000;fill-opacity:1"
       transform="matrix(1.7975149,0,0,1.7975149,-71.637525,-24.624696)"><tspan
         x="87.417969"
         y="40.392021"
         id="tspan1">Akgps</tspan></text>
    <circle
       style="fill:#0072ba;fill-opacity:1"
       id="path2"
       cx="61.192051"
       cy="49.668873"
       r="6.0596027" />
    <circle
       style="fill:#0072ba;fill-opacity:1"
       id="circle2"
       cx="61.192051"
       cy="32.384102"
       r="6.0596027" />
    <circle
       style="fill:#0072ba;fill-opacity:1"
       id="circle3"
       cx="43.112579"
       cy="49.569534"
       r="6.0596027" />
    <circle
       style="fill:#000000;fill-opacity:1"
       id="circle4"
       cx="26.026487"
       cy="49.768211"
       r="6.0596027" />
    <circle
       style="fill:#000000;fill-opacity:1"
       id="circle5"
       cx="26.026487"
       cy="32.483444"
       r="6.0596027" />
    <circle
       style="fill:#000000;fill-opacity:1"
       id="circle6"
       cx="43.112579"
       cy="32.483444"
       r="6.0596027" />
    <circle
       style="fill:#000000;fill-opacity:1"
       id="circle7"
       cx="61.192051"
       cy="15.099335"
       r="6.0596027" />
    <circle
       style="fill:#000000;fill-opacity:1"
       id="circle8"
       cx="26.026487"
       cy="15.198677"
       r="6.0596027" />
    <circle
       style="fill:#000000;fill-opacity:1"
       id="circle9"
       cx="43.112579"
       cy="15.198677"
       r="6.0596027" />
  </g>
</svg>
